<?xml version="1.0" standalone="no"?>
<!DOCTYPE svg PUBLIC "-//W3C//DTD SVG 20010904//EN"
 "http://www.w3.org/TR/2001/REC-SVG-20010904/DTD/svg10.dtd">
<svg version="1.0" xmlns="http://www.w3.org/2000/svg"
 width="512.000000pt" height="512.000000pt" viewBox="0 0 512.000000 512.000000"
 preserveAspectRatio="xMidYMid meet">

<g transform="translate(0.000000,512.000000) scale(0.100000,-0.100000)"
fill="#000000" stroke="none">
<path d="M3155 5107 c-67 -23 -86 -36 -192 -140 -87 -85 -103 -106 -103 -132
0 -39 36 -75 74 -75 23 0 49 20 120 90 123 120 175 140 262 101 77 -35 114
-112 93 -198 -11 -45 -37 -73 -415 -453 -381 -382 -404 -408 -404 -441 0 -45
25 -69 71 -69 30 0 46 12 134 101 120 121 157 143 232 137 91 -8 153 -73 153
-160 0 -64 -18 -104 -70 -153 -52 -50 -65 -79 -50 -116 14 -32 59 -54 91 -44
12 4 48 31 80 60 62 58 101 72 167 61 100 -16 160 -131 121 -233 -5 -15 -59
-78 -120 -139 -116 -118 -128 -142 -94 -191 33 -48 90 -36 155 32 47 49 80 65
135 65 89 0 156 -58 171 -147 12 -77 -9 -104 -330 -423 -163 -162 -314 -304
-334 -315 -32 -17 -63 -21 -237 -25 -232 -6 -231 -6 -339 -108 -84 -78 -138
-104 -221 -105 -103 -1 -122 14 -543 436 -362 364 -381 385 -396 436 -9 30
-16 66 -16 81 0 57 30 126 81 185 28 33 65 89 83 125 l31 65 5 426 5 426 27
40 c65 98 209 99 280 2 30 -39 38 -92 38 -248 l0 -144 -65 -68 c-55 -57 -65
-72 -65 -103 0 -46 29 -76 72 -76 30 0 74 41 475 443 391 390 443 446 443 473
0 39 -36 74 -76 74 -25 0 -72 -44 -331 -302 l-303 -303 0 92 c0 156 -45 258
-147 330 -57 41 -108 55 -192 55 -117 -1 -225 -73 -283 -191 -23 -45 -23 -52
-28 -471 -6 -477 -2 -455 -84 -548 -59 -66 -83 -109 -102 -183 -22 -85 -14
-179 22 -261 25 -57 64 -99 428 -466 437 -439 450 -450 583 -473 129 -23 246
18 365 129 43 39 87 74 100 76 13 3 104 7 203 8 l180 3 70 33 c63 30 98 61
378 340 359 358 372 376 372 517 0 93 -21 148 -81 215 -37 41 -104 81 -156 94
l-27 6 15 43 c22 61 20 161 -5 227 -39 105 -148 187 -262 197 l-57 6 -12 73
c-9 57 -20 87 -48 129 -40 59 -116 120 -163 130 -16 4 -29 10 -29 13 0 4 94
101 209 216 178 177 214 219 238 270 73 163 5 351 -155 424 -66 30 -168 38
-227 19z"/>
<path d="M683 4778 c-12 -6 -27 -24 -34 -41 -21 -51 1 -73 176 -174 88 -51
170 -93 183 -93 30 0 72 43 72 73 0 39 -26 61 -183 151 -159 93 -180 101 -214
84z"/>
<path d="M4349 4766 c-143 -77 -286 -167 -299 -189 -29 -50 24 -119 81 -104
49 13 323 182 338 208 19 33 1 81 -35 98 -33 15 -32 15 -85 -13z"/>
<path d="M375 3619 c-49 -28 -58 -70 -24 -113 l20 -26 200 0 c186 0 200 1 219
20 25 25 26 71 1 101 -19 24 -23 24 -208 27 -125 1 -195 -2 -208 -9z"/>
<path d="M4353 3620 c-44 -18 -57 -86 -23 -120 19 -19 33 -20 219 -20 l200 0
20 26 c34 43 26 86 -20 109 -22 12 -68 15 -201 14 -95 0 -183 -4 -195 -9z"/>
<path d="M820 2540 c-149 -86 -180 -112 -180 -153 0 -26 45 -67 75 -67 14 0
96 41 185 92 185 107 206 132 159 192 -35 44 -67 35 -239 -64z"/>
<path d="M4061 2604 c-47 -60 -26 -85 159 -192 89 -51 171 -92 185 -92 28 0
75 40 75 64 0 46 -22 65 -178 155 -176 100 -207 109 -241 65z"/>
<path d="M455 1441 c-103 -59 -149 -177 -111 -283 8 -21 77 -123 156 -227 93
-125 139 -195 134 -203 -5 -7 -67 -92 -139 -188 -72 -96 -137 -191 -145 -210
-8 -19 -15 -62 -14 -95 0 -92 47 -165 134 -211 34 -18 104 -19 2090 -19 l2055
0 40 22 c47 25 86 64 111 113 22 43 25 142 4 190 -8 19 -73 114 -145 210 -72
96 -134 181 -139 188 -5 8 41 77 133 201 173 230 192 278 156 380 -21 60 -58
104 -114 134 l-49 27 -1725 0 -1726 0 -20 -26 c-34 -43 -26 -86 20 -109 24
-13 255 -15 1723 -15 l1695 0 27 -24 c21 -17 28 -33 28 -59 0 -29 -22 -65
-141 -223 -77 -104 -146 -199 -152 -211 -6 -12 -11 -44 -11 -72 0 -48 4 -54
148 -249 82 -110 152 -209 155 -221 3 -12 1 -36 -5 -52 -22 -63 127 -59 -2067
-59 -1249 0 -2009 4 -2025 10 -32 12 -60 64 -51 97 3 13 72 112 152 219 139
185 147 198 151 248 3 32 -1 63 -9 77 -7 13 -72 103 -144 199 -72 96 -137 185
-144 198 -16 30 -6 74 22 100 20 19 37 21 195 24 169 3 174 4 193 27 25 30 24
76 -1 101 -19 19 -33 20 -207 20 l-188 0 -50 -29z"/>
<path d="M2863 1140 c-173 -35 -256 -210 -162 -340 31 -43 92 -76 236 -129
113 -42 145 -102 84 -154 -62 -51 -170 -39 -251 28 -61 51 -115 45 -139 -14
-23 -54 30 -115 142 -166 148 -67 315 -30 393 87 63 94 52 191 -30 274 -43 43
-70 58 -175 99 -135 54 -160 75 -140 118 25 55 114 63 205 17 97 -49 154 -34
154 42 0 41 -22 64 -95 101 -42 21 -153 50 -174 46 -3 -1 -25 -5 -48 -9z"/>
<path d="M1181 1114 c-20 -26 -21 -38 -21 -374 0 -336 1 -348 21 -374 l20 -26
174 0 174 0 20 26 c26 33 27 65 2 95 -18 22 -27 24 -140 27 l-121 4 0 84 0 84
96 0 c95 0 128 8 151 39 25 33 7 91 -34 110 -13 6 -66 11 -118 11 l-95 0 0 85
0 85 115 0 c110 0 117 1 140 25 30 30 32 64 4 99 l-20 26 -174 0 -174 0 -20
-26z"/>
<path d="M2051 1123 c-23 -20 -281 -680 -281 -721 0 -30 43 -72 73 -72 37 0
64 28 91 95 l24 60 149 3 149 3 23 -66 c25 -70 49 -95 91 -95 34 0 70 38 70
74 0 41 -245 685 -272 713 -26 28 -86 31 -117 6z m103 -366 c20 -53 36 -102
36 -107 0 -6 -37 -10 -86 -10 -65 0 -85 3 -82 13 40 113 83 216 89 210 3 -5
23 -52 43 -106z"/>
<path d="M3410 1120 c-39 -39 -27 -73 85 -244 l105 -159 0 -172 c0 -166 1
-172 23 -193 31 -29 72 -28 102 3 25 24 25 27 25 195 l0 172 105 161 c58 88
105 171 105 183 0 36 -37 74 -74 74 -40 0 -63 -24 -146 -152 -34 -54 -64 -98
-66 -98 -2 0 -36 48 -75 108 -39 59 -78 115 -86 125 -22 23 -78 22 -103 -3z"/>
</g>
</svg>
