<?xml version="1.0" encoding="iso-8859-1"?>
<!-- Uploaded to: SVG Repo, www.svgrepo.com, Generator: SVG Repo Mixer Tools -->
<!DOCTYPE svg PUBLIC "-//W3C//DTD SVG 1.1//EN" "http://www.w3.org/Graphics/SVG/1.1/DTD/svg11.dtd">
<svg fill="#000000" height="800px" width="800px" version="1.1" id="Capa_1" xmlns="http://www.w3.org/2000/svg" xmlns:xlink="http://www.w3.org/1999/xlink" 
	 viewBox="0 0 330 330" xml:space="preserve">
<g>
	<path d="M315,120h-22.688c-1.588-4.487-3.416-8.893-5.477-13.196l16.05-16.05c5.858-5.858,5.858-15.355,0.001-21.213
		l-42.426-42.427c-2.813-2.813-6.629-4.394-10.607-4.394c-3.978,0-7.793,1.58-10.606,4.394l-16.051,16.05
		c-4.304-2.061-8.708-3.888-13.196-5.476V15c0-8.284-6.716-15-15-15h-60c-8.284,0-15,6.716-15,15v22.688
		c-4.488,1.588-8.893,3.416-13.195,5.476l-16.051-16.05c-5.857-5.858-15.355-5.858-21.213,0L27.114,69.541
		c-5.858,5.858-5.858,15.355,0,21.213l16.05,16.051c-2.06,4.303-3.887,8.707-5.475,13.195H15c-8.284,0-15,6.716-15,15v60
		c0,8.284,6.716,15,15,15h22.689c1.588,4.487,3.416,8.893,5.475,13.195l-16.05,16.051c-2.813,2.813-4.394,6.628-4.394,10.606
		c0,3.979,1.58,7.794,4.394,10.607l42.428,42.426c5.858,5.857,15.355,5.857,21.212,0l16.052-16.049
		c4.304,2.06,8.707,3.888,13.194,5.476V315c0,8.284,6.716,15,15,15h60c8.284,0,15-6.716,15-15v-22.689
		c4.488-1.588,8.893-3.415,13.196-5.476l16.052,16.05c5.857,5.857,15.354,5.858,21.212-0.001l42.426-42.426
		c5.858-5.858,5.858-15.355,0-21.213l-16.05-16.05c2.061-4.303,3.889-8.708,5.477-13.196H315c8.284,0,15-6.716,15-15v-60
		C330,126.716,323.284,120,315,120z M300,180h-18.781c-6.846,0-12.822,4.634-14.527,11.264c-2.435,9.469-6.213,18.573-11.227,27.058
		c-3.482,5.893-2.533,13.397,2.308,18.237l13.294,13.294l-21.213,21.213l-13.295-13.293c-4.839-4.839-12.342-5.789-18.234-2.308
		c-8.485,5.012-17.591,8.79-27.063,11.229C184.633,268.399,180,274.375,180,281.22V300h-30v-18.78
		c0-6.844-4.633-12.82-11.261-14.526c-9.471-2.438-18.575-6.216-27.062-11.229c-5.894-3.482-13.395-2.532-18.234,2.308
		l-13.295,13.293l-21.215-21.214l13.294-13.294c4.841-4.84,5.79-12.343,2.308-18.236c-5.012-8.483-8.789-17.588-11.228-27.061
		C61.602,184.633,55.625,180,48.781,180H30v-30h18.781c6.844,0,12.82-4.633,14.526-11.261c2.438-9.474,6.216-18.579,11.228-27.062
		c3.482-5.893,2.533-13.396-2.308-18.236L58.934,80.147l21.214-21.213l13.294,13.293c4.84,4.84,12.344,5.79,18.236,2.308
		c8.484-5.013,17.59-8.79,27.062-11.229C145.367,61.601,150,55.625,150,48.78V30h30v18.78c0,6.844,4.633,12.82,11.261,14.526
		c9.474,2.439,18.579,6.216,27.063,11.229c5.894,3.481,13.396,2.532,18.236-2.308l13.294-13.293l21.213,21.213l-13.294,13.294
		c-4.841,4.84-5.79,12.344-2.308,18.237c5.014,8.484,8.791,17.588,11.227,27.058c1.705,6.629,7.682,11.263,14.527,11.263H300V180z"
		/>
	<path d="M186.394,132.394L152,166.787l-9.394-9.393c-5.857-5.858-15.355-5.858-21.213,0c-5.858,5.858-5.858,15.355,0,21.213l20,20
		C144.322,201.536,148.161,203,152,203c3.839,0,7.678-1.464,10.606-4.394l45-45c5.858-5.858,5.858-15.355,0-21.213
		C201.749,126.535,192.251,126.535,186.394,132.394z"/>
</g>
</svg>