<?xml version="1.0" standalone="no"?>
<!DOCTYPE svg PUBLIC "-//W3C//DTD SVG 20010904//EN"
 "http://www.w3.org/TR/2001/REC-SVG-20010904/DTD/svg10.dtd">
<svg version="1.0" xmlns="http://www.w3.org/2000/svg"
 width="900.000000pt" height="980.000000pt" viewBox="0 0 900.000000 980.000000"
 preserveAspectRatio="xMidYMid meet">

<g transform="translate(0.000000,980.000000) scale(0.100000,-0.100000)"
fill="#000000" stroke="none">
<path d="M4357 9646 c-510 -568 -997 -941 -1632 -1251 -703 -342 -1445 -547
-2468 -678 l-249 -32 1 -175 c2 -206 17 -630 31 -885 50 -863 253 -1873 536
-2657 311 -864 708 -1573 1240 -2213 137 -165 531 -559 694 -695 538 -447
1119 -770 1785 -992 l210 -70 140 47 c1005 338 1876 940 2575 1780 818 983
1389 2306 1639 3800 51 302 82 571 112 945 9 116 30 1077 23 1088 -1 1 -104
27 -230 58 -1310 314 -2033 550 -2694 881 -405 202 -712 400 -970 627 -101 88
-185 169 -530 503 l-75 73 -138 -154z m310 -829 c593 -511 1371 -935 2288
-1247 345 -117 869 -269 1285 -373 l95 -24 -3 -99 c-3 -141 -29 -504 -53 -744
-223 -2259 -1188 -4091 -2679 -5087 -273 -182 -759 -429 -1025 -519 l-69 -24
-96 31 c-295 97 -777 335 -1084 536 -411 268 -847 679 -1184 1115 -458 594
-839 1369 -1087 2213 -199 679 -334 1540 -364 2330 -5 127 -8 231 -7 232 1 1
119 25 262 53 908 178 1472 363 2109 689 239 122 467 257 669 395 237 162 373
271 691 558 76 69 100 86 113 79 10 -5 72 -57 139 -114z"/>
<path d="M6105 6092 c-332 -287 -1013 -882 -1400 -1222 -579 -507 -793 -693
-812 -704 -12 -6 -134 110 -549 525 l-534 534 -230 -230 -230 -230 743 -743
c409 -408 748 -742 753 -742 15 0 795 677 1974 1714 697 612 810 714 810 729
-1 26 -391 457 -413 457 -7 -1 -57 -40 -112 -88z"/>
</g>
</svg>
